<svg xmlns="http://www.w3.org/2000/svg" viewBox="0 0 566.93 566.93"><defs><style>.cls-1{fill:#d7e4e3;}.cls-2{fill:#f8e965;}</style></defs><title>bg-Asset 1</title><g id="Layer_2" data-name="Layer 2"><g id="Layer_1-2" data-name="Layer 1"><path class="cls-1" d="M283.46,141.73H141.73V70.87A70.87,70.87,0,0,1,212.6,0h70.86Z"/><path class="cls-1" d="M283.46,283.46V141.73h70.87A70.87,70.87,0,0,1,425.2,212.6v70.86Z"/><path class="cls-1" d="M566.93,425.2V566.93H496.07a70.87,70.87,0,0,1-70.87-70.87V425.2Z"/><path class="cls-1" d="M141.73,425.2H0v70.86a70.87,70.87,0,0,0,70.87,70.87H212.59a70.87,70.87,0,0,0,70.87-70.87V425.2Z"/><path class="cls-2" d="M141.73,141.73V283.46H70.87A70.87,70.87,0,0,1,0,212.59V141.73Z"/><path class="cls-2" d="M283.46,283.46V425.2H212.6a70.87,70.87,0,0,1-70.87-70.87V283.46Z"/><path class="cls-2" d="M425.2,141.73V0h70.86a70.87,70.87,0,0,1,70.87,70.87v70.86Z"/><rect class="cls-1" x="425.2" y="141.73" width="141.73" height="141.73" rx="70.87"/><rect class="cls-2" x="283.46" y="425.2" width="141.73" height="141.73" rx="70.87"/><rect class="cls-2" width="141.73" height="141.73" rx="70.87"/><path d="M283.46,141.73V0h70.87A70.87,70.87,0,0,1,425.2,70.87v70.86Z"/><path d="M0,283.46H141.73v70.87A70.87,70.87,0,0,1,70.86,425.2H0Z"/><path d="M496.06,283.46H354.34a70.87,70.87,0,0,0-70.88,70.88V425.2H566.93V354.34A70.87,70.87,0,0,0,496.06,283.46Z"/><rect x="141.73" y="141.73" width="141.73" height="141.73" rx="70.87"/></g></g></svg>