<svg xmlns="http://www.w3.org/2000/svg" viewBox="0 0 566.93 425.2"><defs><style>.cls-1{fill:#f8e965;}</style></defs><title>bg-Asset 3</title><g id="Layer_2" data-name="Layer 2"><g id="Layer_1-2" data-name="Layer 1"><path class="cls-1" d="M141.73,0V141.73H70.87A70.87,70.87,0,0,1,0,70.86V0Z"/><path class="cls-1" d="M283.46,141.73V0h70.87A70.87,70.87,0,0,1,425.2,70.87v70.86Z"/><path class="cls-1" d="M283.46,141.73V283.46H212.6a70.87,70.87,0,0,1-70.87-70.87V141.73Z"/><path class="cls-1" d="M566.93,283.46V425.2H496.07a70.87,70.87,0,0,1-70.87-70.87V283.46Z"/><path class="cls-1" d="M141.73,283.46V425.2H70.87A70.87,70.87,0,0,1,0,354.33V283.46Z"/><rect class="cls-1" x="425.2" width="141.73" height="141.73" rx="70.87"/><rect class="cls-1" x="283.47" y="283.46" width="141.73" height="141.73" rx="70.87"/><path d="M141.73,283.46H283.46v70.87a70.87,70.87,0,0,1-70.87,70.87H141.73Z"/><rect x="141.73" width="141.73" height="141.73" rx="70.87"/><path d="M0,141.73H141.73v70.86a70.87,70.87,0,0,1-70.87,70.87H0Z"/><path d="M496.06,141.73H354.34a70.87,70.87,0,0,0-70.88,70.87v70.86H566.93V212.6A70.87,70.87,0,0,0,496.06,141.73Z"/></g></g></svg>