<svg xmlns="http://www.w3.org/2000/svg" viewBox="0 0 425.2 566.93"><defs><style>.cls-1{fill:#f8e965;}</style></defs><title>bg-Asset 8</title><g id="Layer_2" data-name="Layer 2"><g id="Layer_1-2" data-name="Layer 1"><path class="cls-1" d="M425.2,141.73H283.46V70.87A70.87,70.87,0,0,1,354.34,0H425.2Z"/><path class="cls-1" d="M283.46,283.46H425.2v70.87a70.87,70.87,0,0,1-70.87,70.87H283.46Z"/><path class="cls-1" d="M283.46,283.46H141.73V212.6a70.87,70.87,0,0,1,70.87-70.87h70.86Z"/><path class="cls-1" d="M141.73,566.93H0V496.07A70.87,70.87,0,0,1,70.87,425.2h70.86Z"/><path class="cls-1" d="M141.73,141.73H0V70.87A70.87,70.87,0,0,1,70.87,0h70.86Z"/><rect class="cls-1" x="283.46" y="425.2" width="141.73" height="141.73" rx="70.87"/><rect class="cls-1" y="283.47" width="141.73" height="141.73" rx="70.87"/><path d="M141.73,141.73V283.46H70.87A70.87,70.87,0,0,1,0,212.59V141.73Z"/><rect x="283.46" y="141.73" width="141.73" height="141.73" rx="70.87"/><path d="M283.46,0V141.73H212.6a70.87,70.87,0,0,1-70.87-70.87V0Z"/><path d="M283.46,496.06V354.34a70.87,70.87,0,0,0-70.87-70.88H141.73V566.93h70.86A70.87,70.87,0,0,0,283.46,496.06Z"/></g></g></svg>